PathFileType	4	(X/Y/Z)
DataRate	CameraRate	NumFrames	NumMarkers	Units	OrigDataRate	OrigDataStartFrame	OrigNumFrames	
	120.0	120.0	5	39	mm	120.0	116	231
Frame#	Time	midhip	hip_r	hip_l	knee_r	knee_l	ankle_r	ankle_l	midasis	asis_r	asis_l	psis_r	psis_l	epicondLat_r	epicondLat_l	epicondMed_r	epicondMed_l	malleolusLat_r	malleolusLat_l	malleolusMedv_r	malleolusMedv_l	heel_r	heel_l	sternalnotch	xyphoidprocess	neck	subclavicle_r	subclavicle_l	toe_r	toe_l	thighwand_r	thighwand_l	upperleg1_r	upperleg1_l	upperleg2_r	upperleg2_l	shankwand_r	shankwand_l	lowerleg1_r	lowerleg1_l
	X1	Y1	Z1	X2	Y2	Z2	X3	Y3	Z3	X4	Y4	Z4	X5	Y5	Z5	X6	Y6	Z6	X7	Y7	Z7	X8	Y8	Z8	X9	Y9	Z9	X10	Y10	Z10	X11	Y11	Z11	X12	Y12	Z12	X13	Y13	Z13	X14	Y14	Z14	X15	Y15	Z15	X16	Y16	Z16	X17	Y17	Z17	X18	Y18	Z18	X19	Y19	Z19	X20	Y20	Z20	X21	Y21	Z21	X22	Y22	Z22	X23	Y23	Z23	X24	Y24	Z24	X25	Y25	Z25	X26	Y26	Z26	X27	Y27	Z27	X28	Y28	Z28	X29	Y29	Z29	X30	Y30	Z30	X31	Y31	Z31	X32	Y32	Z32	X33	Y33	Z33	X34	Y34	Z34	X35	Y35	Z35	X36	Y36	Z36	X37	Y37	Z37	X38	Y38	Z38	X39	Y39	Z39

	116	0.96667	1455.523	835.365	-253.176	1465.738	836.468	-195.346	1445.309	834.261	-311.006	1444.212	459.400	-171.282	1444.115	466.162	-341.035	1420.525	63.146	-171.786	1416.674	65.924	-356.200	1526.019	905.798	-260.919	1535.048	907.812	-160.401	1516.990	903.785	-361.438	1377.645	957.478	-222.218	1371.710	956.922	-276.749	1458.573	461.965	-118.252	1448.716	470.562	-395.162	1429.844	453.146	-223.419	1438.063	454.044	-286.284	1410.573	63.693	-134.598	1409.688	67.835	-394.012	1442.480	76.945	-199.497	1439.282	75.820	-333.364	1373.176	42.740	-167.210	1370.171	48.117	-344.115	1493.358	1301.106	-279.119	1569.651	1143.498	-272.533	1408.224	1347.574	-266.547	1513.610	1296.392	-220.345	1504.407	1288.191	-328.725	1533.368	41.108	-126.277	1532.293	39.215	-407.426	1591.962	621.640	-190.741	1576.208	632.441	-320.985	1523.394	677.562	-142.390	1503.713	676.963	-375.557	1509.880	592.583	-137.423	1503.812	588.935	-372.563	1412.775	186.057	-62.627	1365.842	187.954	-444.469	1416.713	192.493	-104.278	1385.979	191.461	-406.199
	117	0.97500	1455.641	835.379	-252.968	1465.785	836.461	-195.125	1445.497	834.296	-310.811	1444.095	459.402	-171.043	1444.193	466.191	-340.867	1420.551	63.152	-171.692	1416.669	65.945	-356.173	1526.084	905.878	-260.590	1534.993	907.847	-160.038	1517.175	903.908	-361.143	1377.586	957.430	-221.949	1371.723	956.879	-276.531	1458.379	461.969	-117.992	1448.761	470.594	-394.996	1429.818	453.066	-222.992	1437.589	454.342	-285.794	1410.545	63.686	-134.518	1409.661	67.873	-393.981	1442.479	76.994	-199.391	1439.260	75.854	-333.315	1373.130	42.723	-167.190	1370.119	48.126	-344.035	1493.180	1301.148	-278.854	1569.745	1143.683	-272.040	1407.881	1347.534	-266.306	1513.414	1296.543	-220.037	1504.274	1288.190	-328.467	1533.315	41.119	-126.200	1532.284	39.189	-407.410	1591.880	621.650	-190.272	1576.170	632.397	-320.548	1523.268	677.559	-142.051	1503.834	677.041	-375.287	1509.753	592.576	-137.027	1503.741	588.929	-372.169	1412.649	186.032	-62.554	1365.788	188.002	-444.379	1416.617	192.523	-104.153	1385.998	191.503	-406.100
	118	0.98333	1455.757	835.396	-252.761	1465.829	836.456	-194.905	1445.684	834.336	-310.617	1444.000	459.409	-170.815	1444.248	466.217	-340.684	1420.575	63.167	-171.601	1416.683	65.978	-356.158	1526.158	905.950	-260.260	1534.944	907.875	-159.674	1517.373	904.025	-360.846	1377.561	957.403	-221.704	1371.742	956.845	-276.299	1458.215	461.977	-117.746	1448.759	470.621	-394.818	1429.675	453.047	-222.691	1437.311	454.465	-285.593	1410.521	63.688	-134.441	1409.636	67.924	-393.957	1442.479	77.038	-199.312	1439.274	75.903	-333.306	1373.100	42.710	-167.171	1370.065	48.174	-343.969	1492.970	1301.166	-278.587	1569.759	1143.811	-271.727	1407.426	1347.525	-266.042	1513.174	1296.591	-219.720	1504.113	1288.223	-328.229	1533.268	41.131	-126.117	1532.273	39.139	-407.398	1591.814	621.681	-189.828	1576.117	632.330	-320.094	1523.162	677.550	-141.789	1503.898	677.094	-374.984	1509.566	592.562	-136.710	1503.728	589.001	-371.859	1412.531	186.014	-62.482	1365.728	188.045	-444.300	1416.493	192.546	-104.037	1386.005	191.547	-406.042
	119	0.99167	1455.880	835.418	-252.580	1465.873	836.453	-194.710	1445.887	834.382	-310.451	1443.935	459.413	-170.606	1444.282	466.242	-340.496	1420.589	63.186	-171.525	1416.719	66.015	-356.163	1526.252	906.015	-259.948	1534.903	907.893	-159.324	1517.602	904.137	-360.572	1377.575	957.402	-221.492	1371.761	956.825	-276.058	1458.090	461.983	-117.521	1448.720	470.641	-394.636	1429.597	453.064	-222.497	1437.178	454.451	-285.622	1410.493	63.695	-134.376	1409.623	67.983	-393.952	1442.434	77.050	-199.266	1439.288	75.947	-333.316	1373.086	42.703	-167.155	1370.048	48.224	-343.952	1492.801	1301.207	-278.309	1569.839	1143.971	-271.516	1407.014	1347.513	-265.796	1513.037	1296.650	-219.451	1503.944	1288.293	-327.960	1533.226	41.139	-126.036	1532.275	39.081	-407.393	1591.769	621.728	-189.419	1576.070	632.257	-319.673	1523.043	677.530	-141.513	1503.935	677.133	-374.658	1509.408	592.598	-136.429	1503.755	589.112	-371.629	1412.416	185.995	-62.414	1365.667	188.084	-444.237	1416.361	192.559	-103.921	1385.962	191.597	-405.999
	120	1.00000	1455.986	835.438	-252.402	1465.907	836.453	-194.519	1446.064	834.422	-310.285	1443.905	459.411	-170.416	1444.294	466.256	-340.310	1420.598	63.200	-171.466	1416.778	66.047	-356.189	1526.344	906.060	-259.655	1534.872	907.901	-159.000	1517.816	904.219	-360.309	1377.608	957.423	-221.305	1371.778	956.822	-275.813	1458.006	461.983	-117.317	1448.653	470.651	-394.457	1429.499	453.138	-222.292	1437.093	454.347	-285.818	1410.464	63.698	-134.327	1409.628	68.037	-393.967	1442.375	77.050	-199.226	1439.252	75.982	-333.318	1373.087	42.699	-167.142	1370.053	48.273	-343.969	1492.626	1301.234	-278.009	1569.905	1144.119	-271.140	1406.626	1347.479	-265.560	1512.841	1296.723	-219.141	1503.813	1288.324	-327.650	1533.193	41.141	-125.957	1532.292	39.057	-407.402	1591.751	621.776	-189.056	1576.020	632.173	-319.281	1522.960	677.531	-141.204	1503.950	677.148	-374.343	1509.287	592.659	-136.138	1503.792	589.230	-371.470	1412.301	185.972	-62.352	1365.610	188.117	-444.192	1416.229	192.574	-103.810	1385.903	191.652	-405.971
